<?xml version="1.0" encoding="UTF-8"?>
<svg id="Layer_1" data-name="Layer 1" xmlns="http://www.w3.org/2000/svg" viewBox="0 0 1000 249.82">
  <defs>
    <style>
      .cls-1 {
        fill: #3a100c;
      }

      .cls-2 {
        fill: #ff7300;
      }

      .cls-3, .cls-4 {
        fill: #967717;
      }

      .cls-4 {
        font-family: Tajawal-Regular, Tajawal;
        font-size: 45.81px;
      }

      .cls-5 {
        fill: #5d6019;
      }
    </style>
  </defs>
  <g>
    <g>
      <rect class="cls-5" x="956.38" y="68.13" width="12.76" height="71.22" transform="translate(208.63 711.16) rotate(-45)"/>
      <rect class="cls-5" x="866.81" y="145.59" width="12.76" height="12.76" transform="translate(148.29 661.95) rotate(-45)"/>
      <rect class="cls-2" x="853.03" y="131.81" width="12.76" height="12.76" transform="translate(154 648.17) rotate(-45)"/>
      <rect class="cls-1" x="880.59" y="186.93" width="12.76" height="12.76" transform="translate(123.1 683.8) rotate(-45)"/>
      <path class="cls-3" d="M864.16,124.41l22.8,22.8,27.56-27.56,4.76,4.76-27.56,27.56,13.78,13.78-4.76,4.76-13.78-13.78-9.02,9.02,27.56,27.56-32.32,32.32-13.78-13.78-9.02,9.02,22.8,22.8,50.36-50.36-13.78-13.78,4.76-4.76,13.78,13.78,50.36-50.36-50.36-50.36-9.02,9.02,41.34,41.34-4.76,4.76-13.78-13.78-22.8,22.8,13.78,13.78-4.76,4.76-18.54-18.54,27.56-27.56-22.8-22.8-27.56,27.56-4.76-4.76,55.12-55.12-9.02-9.02-64.14,64.14ZM937.33,151.97l4.76-4.76,4.76,4.76-4.76,4.76-4.76-4.76Z"/>
      <path class="cls-5" d="M836.6,151.97l27.56,27.56-4.76,4.76-13.78-13.78-22.8,22.8,22.8,22.8,13.78-13.78,13.78,13.78,9.02-9.02-13.78-13.78,13.78-13.78-36.58-36.58-9.02,9.02ZM845.62,198.07l-4.76-4.76,4.76-4.76,4.76,4.76-4.76,4.76Z"/>
      <rect class="cls-3" x="811.69" y="173.15" width="12.76" height="12.76" transform="translate(112.66 631.04) rotate(-45)"/>
      <rect class="cls-5" x="825.47" y="159.37" width="12.76" height="12.76" transform="translate(126.44 636.75) rotate(-45)"/>
    </g>
    <g>
      <rect class="cls-5" x="887.33" y="-.92" width="12.76" height="71.22" transform="translate(237.23 642.11) rotate(-45)"/>
      <path class="cls-5" d="M817.92,115.24l-27.56-27.56-9.02,9.02,41.34,41.34-18.54,18.54-4.76-4.76,13.78-13.78-22.8-22.8-22.8,22.8,36.58,36.58,50.36-50.36-22.8-22.8-13.78,13.78ZM785.6,138.04l4.76-4.76,4.76,4.76-4.76,4.76-4.76-4.76ZM836.46,124.26l-4.76,4.76-4.76-4.76,4.76-4.76,4.76,4.76Z"/>
      <polygon class="cls-3" points="859.26 18.78 909.62 69.14 859.26 119.5 831.7 91.94 822.68 82.92 817.92 78.16 813.16 82.92 826.94 96.7 817.92 105.72 795.12 82.92 817.92 60.12 831.7 73.9 840.72 82.92 859.26 101.46 864.02 96.7 850.24 82.92 864.02 69.14 859.26 64.38 845.48 78.16 822.68 55.36 845.48 32.56 854.5 41.58 840.72 55.36 845.48 60.12 859.26 46.34 882.06 69.14 868.28 82.92 873.04 87.68 891.58 69.14 850.24 27.8 859.26 18.78"/>
      <rect class="cls-1" x="770.2" y="104.1" width="12.76" height="12.76" transform="translate(149.33 581.48) rotate(-45)"/>
      <rect class="cls-3" x="756.42" y="117.88" width="12.76" height="12.76" transform="translate(135.55 575.78) rotate(-45)"/>
    </g>
  </g>
  <g>
    <path class="cls-3" d="M55.3,53.98c.25.75.21,1.57-.13,2.47-.34.9-.72,1.26-1.14,1.1-.68-.25-2.01-.85-4-1.81-1.78,3.21-5.45,7.33-11.02,12.35-5.57,5.02-9.28,7.54-11.14,7.54-.38,0-.63-.15-.76-.44,3.47-2.96,6.96-5.92,10.48-8.88,5.8-5,9.29-8.77,10.48-11.32-1.14-.71-2.31-1.42-3.49-2.13-1.06-.92-1.59-2.19-1.59-3.81,0-.92.68-2.27,2.03-4.06,1.35-1.79,2.52-2.69,3.49-2.69,2.84,0,4.25,1.67,4.25,5,0,1.33-.3,2.75-.89,4.25,1.06.54,2.2,1.36,3.43,2.44ZM49.97,51.1c.13-.46.19-.94.19-1.44,0-2.17-.68-3.25-2.03-3.25-1.06,0-1.65.48-1.78,1.44-.13.84,1.08,1.92,3.62,3.25Z"/>
    <path class="cls-5" d="M72.91,159.98c-6.77.25-12.26-1.88-16.45-6.38-1.27-1.38-2.77-3.73-4.51-7.07-1.19-2.33-2.41-3.54-3.68-3.63-1.69-.12-3.95,1.03-6.76,3.47-2.82,2.44-4.75,4.8-5.81,7.1-1.82,4.46-3.66,8.92-5.52,13.38-1.99,4.17-4.36,6.25-7.11,6.25-3.39,0-6.41-2.21-9.08-6.63-2.79-4.71-4.19-10.46-4.19-17.26,0-2.71.4-6.36,1.21-10.94.3-1.71.7-2.56,1.21-2.56.55,0,.78.98.7,2.94-.04,1.59-.15,3.36-.32,5.31-.09,1.5-.13,2.73-.13,3.69,0,3.88.7,7.67,2.1,11.38,1.74,4.75,4.06,7.13,6.99,7.13,2.54,0,4.61-1.46,6.22-4.38,1.48-3.5,2.94-6.98,4.38-10.44,2.16-5,4.76-9.09,7.81-12.26,3.39-3.54,6.63-5.31,9.72-5.31,1.57,0,3.22,1.37,4.95,4.13,2.71,4.38,4.23,6.75,4.57,7.13,3.64,4.13,8.21,6.19,13.72,6.19v8.75ZM38.94,109.71c0,1.04-.25,2.29-.76,3.75-.63,1.75-1.36,2.63-2.16,2.63-.38,0-1.93-.81-4.64-2.44-2.92-1.71-4.38-2.92-4.38-3.63,0-.67,1.04-3.23,3.11-7.69,1.23,1.21,3.24,2.63,6.03,4.25,1.86,1.04,2.79,2.09,2.79,3.13ZM51.7,106.08c0,.62-.28,1.75-.83,3.38-.72,1.96-1.46,3.36-2.22,4.19-1.69-.88-3.37-1.77-5.02-2.69-2.33-1.29-3.49-2.27-3.49-2.94,0-.25.44-1.45,1.33-3.6s1.52-3.22,1.9-3.22c5.55,2.33,8.32,3.96,8.32,4.88Z"/>
    <path class="cls-3" d="M101.89,43.65l-.25,3.38c-3.47,1.63-9.12,4.38-16.95,8.25-5.25,2.67-12.49,6.52-21.72,11.57l.32-3.38c4.36-2.42,11.58-6.27,21.65-11.57,4.06-2.04,9.72-4.79,16.96-8.25Z"/>
    <path class="cls-5" d="M104.85,159.98c-7.62,0-12.93-6.13-15.94-18.38-.55,6.54-2.6,11.42-6.16,14.63-2.75,2.5-6.03,3.75-9.84,3.75v-8.75c3.09,0,5.99-.63,8.7-1.88,2.71-1.25,4.17-2.69,4.38-4.31.38-3.21.46-7.11.25-11.69-.17-3.96-.49-7.63-.95-11.01-1.02-8.09-2.75-20.95-5.21-38.58-1.4-9.05-2.12-14.26-2.16-15.63.08.71.61-1.89,1.59-7.82.17-.25.36-.37.57-.37,1.31,0,3.13,7.28,5.46,21.82,1.57,9.71,2.94,20.3,4.13,31.76.64,6.21,1.27,12.44,1.91,18.7.8,6.34,2.77,11.28,5.91,14.82,2.45,2.79,4.91,4.19,7.37,4.19v8.75Z"/>
    <path class="cls-3" d="M153.62,153.45l-.32,3.44c-3.47,1.63-9.12,4.34-16.96,8.13-5.25,2.63-12.47,6.5-21.65,11.63l.32-3.38c4.36-2.46,11.56-6.34,21.59-11.63,4.06-2.04,9.74-4.77,17.02-8.19Z"/>
    <path class="cls-5" d="M141.3,146.47c0,2.13-.49,4.15-1.46,6.07-1.1,2.04-2.37,3.06-3.81,3.06-1.61,0-4.02-.77-7.24-2.31-3.68-1.83-6.37-3.86-8.07-6.07-2.46,4.09-4.11,6.59-4.95,7.5-3.09,3.5-6.73,5.25-10.92,5.25v-8.75c2.88,0,5.61-.52,8.19-1.56,1.61-.67,3.6-2.71,5.97-6.13,2.24-3.21,3.6-4.82,4.06-4.82.21,0,.4.15.57.44,2.88-5.38,6.01-8.07,9.4-8.07,2.75,0,4.87,1.65,6.35,4.94,1.27,2.79,1.9,6.27,1.9,10.44ZM134.82,145.66c-.04-1.5-.48-2.87-1.3-4.09-.82-1.23-1.7-1.84-2.64-1.84-1.78,0-3.17.46-4.19,1.37,1.9,1.71,2.98,2.65,3.24,2.81,1.4.96,3.03,1.54,4.89,1.75Z"/>
    <path class="cls-5" d="M182.96,159.98c-3.85,0-7.43-1.81-10.73-5.44-2.5-2.75-4.21-5.65-5.14-8.69-1.23-3.96-2.41-11.51-3.56-22.64-1.27-12.42-2.73-24.03-4.38-34.83-.47-3.17-1.55-7.42-3.24-12.76-1.52-4.92-2.29-7.5-2.29-7.75.59-1.96,1.27-4.48,2.03-7.57.13-.21.3-.31.51-.31,1.06,0,2.54,3.15,4.45,9.44,1.78,5.88,3.11,11.53,4,16.95,1.52,9.59,2.73,19.41,3.62,29.45.42,5.46.87,10.92,1.33,16.38.8,6.34,2.79,11.28,5.97,14.82,2.5,2.79,4.97,4.19,7.43,4.19v8.75Z"/>
    <path class="cls-3" d="M268.05,51.53l-.25,3.38c-3.47,1.63-9.12,4.38-16.95,8.25-5.25,2.67-12.49,6.52-21.72,11.57l.32-3.38c4.36-2.42,11.58-6.27,21.65-11.57,4.06-2.04,9.72-4.79,16.96-8.25Z"/>
    <path class="cls-5" d="M314.22,159.98c-1.52,0-3.05-.46-4.57-1.38-2.07-1.29-3.22-3.1-3.43-5.44-.21-2.33-.09-4.31.38-5.94-1.52.67-3.11,1.02-4.76,1.06-.63,0-13.99,1.98-40.07,5.94-25.44,3.84-45.32,5.75-59.63,5.75h-19.18v-8.75h19.24c13.67,0,33.32-1.65,58.93-4.94,26.29-3.42,39.52-5.13,39.69-5.13,2.37-.04,4.28-.19,5.72-.44-3.98-7.92-13.06-11.88-27.24-11.88-4.28,0-15.3.9-33.08,2.69-17.78,1.79-29.87,2.69-36.26,2.69-15.41,0-23.11-2.67-23.11-8,0-.54.08-1.08.25-1.63,1.57-5.54,4.02-10.25,7.37-14.13,2.67-3.09,6.9-6.65,12.7-10.69,13.5-9.42,23.47-14.15,29.91-14.19,3.56-.04,5.33,1.1,5.33,3.44,0,1.21-.74,3.29-2.22,6.25-.68,1.33-1.12,2-1.33,2-.47,0-.93-.73-1.4-2.19-.51-1.63-1.86-2.4-4.06-2.31-1.23.17-4.19,1.36-8.89,3.56-5.29,2.5-9.74,4.98-13.34,7.44-12.62,8.59-18.97,14.44-19.05,17.57-.04,1.33,1.8,2.52,5.52,3.56,4.53,1.21,10.86,1.79,18.99,1.75,3.64-.04,13.86-.89,30.67-2.56,16.64-1.67,27.31-2.5,32-2.5,9.86,0,16.93.79,21.21,2.38,5.08,1.88,9.02,5.63,11.81,11.26.21.46.32,1.02.32,1.69,0,2.92-1.36,5.84-4.06,8.75.08.21.13.8.13,1.78s.57,1.93,1.71,2.85c.8.62,2.07.94,3.81.94v8.75Z"/>
    <path class="cls-3" d="M323.44,51.22c0,1.42-.59,2.66-1.78,3.72-1.19,1.06-2.41,1.59-3.68,1.59-1.69,0-2.54-1.1-2.54-3.31,0-1.58.4-3.23,1.21-4.94.51-1,1.04-2,1.59-3,.13-.33.68-1.52,1.65-3.56.08-.21.27-.42.57-.63.38-.21.57-.15.57.19,0,.21-.7,1.94-2.1,5.19.97-.12,1.97.27,2.98,1.19,1.02.92,1.52,2.1,1.52,3.56ZM321.79,52.29c-.89-2.04-2.31-2.94-4.25-2.69-.42.63-.57,1.36-.44,2.19.13.42.46,1,1.02,1.75.85-.17,2.07-.58,3.68-1.25Z"/>
    <path class="cls-5" d="M329.39,135.97c.17,8-1.08,13.82-3.75,17.45-3.22,4.38-7.03,6.57-11.43,6.57v-8.75c3.51,0,6.12-.5,7.81-1.5,1.35-.75,2.5-2.1,3.43-4.06.08-.12.13-.46.13-1,0-3.83-2.14-21.97-6.41-54.4-.72-5.59-1.27-11.88-1.65-18.88-.09-.25-.47-.83-1.14-1.75-.25-.33-.38-.79-.38-1.37,0-1.13.68-3.77,2.03-7.94.08-.29.21-.44.38-.44.42,0,1.02.96,1.78,2.88,4.36,8.13,6.54,13.4,6.54,15.82,0,.42-.13.62-.38.62-.21,0-.49-.12-.83-.37-.09-.08-1.21-1.29-3.37-3.63,2.16,15.51,4.57,35.77,7.24,60.78Z"/>
    <path class="cls-3" d="M353.43,45.53c-.49-.5-1.21-.74-2.19-.7-1.65.09-3.7,1.31-6.1,3.69-1.75,1.72-3.12,3.38-4.14,5-.29-.04-.89-.33-1.8-.88-.92-.54-1.69-.79-2.32-.75-2.04.09-4.62,2.57-7.75,7.45-.64.96-.95,1.64-.95,2.06,0,.17.08.28.25.32.47,0,1.05-.45,1.77-1.31,1.19-1.42,2.43-2.34,3.75-2.76.29-.08,1.29.38,2.99,1.38,1.68,1,3.01,1.39,3.99,1.2,3.52-.76,6.55-2.27,9.08-4.57,2.71-2.5,4.08-5.23,4.14-8.2,0-.79-.25-1.43-.73-1.93ZM348.44,53c-1.52.81-2.99,1.22-4.38,1.22-.39,0-.75-.05-1.08-.13,1.27-2.55,3.17-3.81,5.71-3.81,1.36,0,2.04.25,2.04.75s-.77,1.16-2.29,1.97Z"/>
    <path class="cls-5" d="M354.29,139.72c.17,2.08.25,4.1.25,6.07,0,6.92-.83,11.9-2.48,14.94-.64,1.17-1.1,1.75-1.4,1.75-.47,0-.53-1.33-.19-4,.42-3.38.44-6.9.06-10.57-1.52-11.92-3.64-29.85-6.35-53.77-.34-4.38-.91-10.69-1.71-18.95-.13-.46-.7-1.69-1.71-3.69-.25-.46.42-3.1,2.03-7.94.08-.29.21-.44.38-.44.42,0,1.02.9,1.78,2.69,1.31,2.75,2.6,5.5,3.87,8.25,2.03,4.25,3.05,6.9,3.05,7.94,0,.33-.13.5-.38.5-.17,0-.44-.12-.83-.37-1.06-.79-2.18-1.79-3.37-3-.09,1.17.78,8.84,2.6,23.01,2.2,16.88,3.66,29.41,4.38,37.58Z"/>
    <path class="cls-3" d="M429.52,53.98c.26.75.21,1.57-.13,2.47-.34.9-.72,1.26-1.14,1.1-.68-.25-2.01-.85-4-1.81-1.78,3.21-5.45,7.33-11.02,12.35-5.57,5.02-9.28,7.54-11.14,7.54-.38,0-.64-.15-.76-.44,3.47-2.96,6.96-5.92,10.48-8.88,5.8-5,9.29-8.77,10.48-11.32-1.14-.71-2.31-1.42-3.49-2.13-1.06-.92-1.59-2.19-1.59-3.81,0-.92.68-2.27,2.03-4.06,1.35-1.79,2.52-2.69,3.49-2.69,2.83,0,4.25,1.67,4.25,5,0,1.33-.3,2.75-.89,4.25,1.06.54,2.2,1.36,3.43,2.44ZM424.18,51.1c.13-.46.19-.94.19-1.44,0-2.17-.68-3.25-2.03-3.25-1.06,0-1.65.48-1.78,1.44-.13.84,1.08,1.92,3.62,3.25Z"/>
    <path class="cls-5" d="M447.13,159.98c-6.77.25-12.26-1.88-16.45-6.38-1.27-1.38-2.77-3.73-4.51-7.07-1.18-2.33-2.41-3.54-3.68-3.63-1.69-.12-3.95,1.03-6.76,3.47-2.81,2.44-4.75,4.8-5.81,7.1-1.82,4.46-3.66,8.92-5.53,13.38-1.99,4.17-4.36,6.25-7.11,6.25-3.39,0-6.41-2.21-9.08-6.63-2.79-4.71-4.19-10.46-4.19-17.26,0-2.71.4-6.36,1.21-10.94.29-1.71.7-2.56,1.21-2.56.55,0,.78.98.7,2.94-.04,1.59-.15,3.36-.32,5.31-.08,1.5-.13,2.73-.13,3.69,0,3.88.7,7.67,2.1,11.38,1.73,4.75,4.06,7.13,6.99,7.13,2.54,0,4.61-1.46,6.22-4.38,1.48-3.5,2.94-6.98,4.38-10.44,2.16-5,4.76-9.09,7.81-12.26,3.39-3.54,6.62-5.31,9.72-5.31,1.57,0,3.22,1.37,4.95,4.13,2.71,4.38,4.23,6.75,4.57,7.13,3.64,4.13,8.21,6.19,13.72,6.19v8.75ZM413.15,109.71c0,1.04-.25,2.29-.76,3.75-.64,1.75-1.36,2.63-2.16,2.63-.38,0-1.93-.81-4.64-2.44-2.92-1.71-4.38-2.92-4.38-3.63,0-.67,1.04-3.23,3.11-7.69,1.23,1.21,3.24,2.63,6.03,4.25,1.86,1.04,2.79,2.09,2.79,3.13ZM425.92,106.08c0,.62-.28,1.75-.83,3.38-.72,1.96-1.46,3.36-2.22,4.19-1.69-.88-3.37-1.77-5.02-2.69-2.33-1.29-3.49-2.27-3.49-2.94,0-.25.44-1.45,1.33-3.6.89-2.15,1.52-3.22,1.9-3.22,5.55,2.33,8.32,3.96,8.32,4.88Z"/>
    <path class="cls-3" d="M478.69,84.07l-.25,3.38c-3.47,1.63-9.12,4.36-16.95,8.19-5.25,2.63-12.49,6.5-21.72,11.63l.32-3.44c4.36-2.46,11.56-6.34,21.59-11.63,4.06-2.04,9.74-4.75,17.02-8.13Z"/>
    <path class="cls-5" d="M471.32,159.98c-1.27,0-2.92-.5-4.95-1.5-2.37-1.17-4.11-2.54-5.21-4.13-.89-1.33-1.27-2.98-1.14-4.94-1.86,3.75-3.37,6.17-4.51,7.25-2.33,2.21-5.12,3.31-8.38,3.31v-8.75c3.98,0,6.92-.67,8.83-2,.51-.33,1.14-1.23,1.9-2.69.89-1.71,1.42-2.67,1.59-2.88,2.12-2.71,3.18-3.25,3.18-1.63,0,.58-.17,1.36-.51,2.31.21.58.56,1.3,1.05,2.16.49.86,1.7,1.86,3.65,3,1.95,1.15,3.45,1.72,4.51,1.72v8.75ZM464.4,168.8c0,2.88-.85,5.31-2.54,7.32-2.46-1.25-4.93-2.48-7.43-3.69-1.23-.71-1.84-1.44-1.84-2.19,0,.25.76-2.33,2.29-7.75,1.1.92,3.17,2.08,6.22,3.5,2.2,1.04,3.3,1.98,3.3,2.81Z"/>
    <path class="cls-3" d="M502.88,48.63l-.25,3.38c-3.47,1.63-9.12,4.38-16.96,8.25-5.25,2.67-12.49,6.52-21.72,11.57l.32-3.38c4.36-2.42,11.58-6.27,21.65-11.57,4.06-2.04,9.72-4.79,16.95-8.25Z"/>
    <path class="cls-5" d="M472.27,103.77c.13.08.19.31.19.69,0,2.13-.74,4.67-2.22,7.63-.04.13-.15.19-.32.19-.42,0-2.67-1.48-6.73-4.44-.17-.13-.26-.38-.26-.75,0,.29.68-2.33,2.03-7.88.04-.08.11-.13.19-.13.25,0,1.19.63,2.79,1.88,1.82,1.42,3.26,2.36,4.32,2.81ZM478.75,116.09c.17.12.26.38.26.75,0,.33-.72,2.84-2.16,7.5-.08.21-.21.31-.38.31-.21,0-1.1-.58-2.67-1.75-1.78-1.33-3.45-2.25-5.02-2.75-.08-.04-.13-.17-.13-.38,0-.71.38-2.27,1.14-4.69.76-2.29,1.19-3.4,1.27-3.31,2.07,1.13,4.64,2.56,7.68,4.31ZM495.52,159.98c-1.27,0-2.92-.5-4.95-1.5-2.37-1.17-4.11-2.54-5.21-4.13-.89-1.33-1.27-2.98-1.14-4.94-1.86,3.75-3.37,6.17-4.51,7.25-2.33,2.21-5.12,3.31-8.38,3.31v-8.75c3.98,0,6.92-.67,8.83-2,.51-.33,1.14-1.23,1.9-2.69.89-1.71,1.42-2.67,1.59-2.88,2.12-2.71,3.18-3.25,3.18-1.63,0,.58-.17,1.36-.51,2.31.21.58.56,1.3,1.05,2.16.49.86,1.7,1.86,3.65,3,1.95,1.15,3.45,1.72,4.51,1.72v8.75Z"/>
    <path class="cls-3" d="M565.14,56.82c0,1.42-.59,2.66-1.78,3.72-1.19,1.06-2.41,1.59-3.68,1.59-1.69,0-2.54-1.1-2.54-3.31,0-1.58.4-3.23,1.21-4.94.51-1,1.04-2,1.59-3,.13-.33.68-1.52,1.65-3.56.08-.21.27-.42.57-.63.38-.21.57-.15.57.19,0,.21-.7,1.94-2.09,5.19.97-.12,1.97.27,2.98,1.19s1.52,2.1,1.52,3.56ZM563.49,57.88c-.89-2.04-2.31-2.94-4.25-2.69-.42.63-.57,1.36-.44,2.19.13.42.46,1,1.02,1.75.85-.17,2.07-.58,3.68-1.25Z"/>
    <path class="cls-5" d="M626.77,159.98c-1.52,0-3.05-.46-4.57-1.38-2.08-1.29-3.22-3.1-3.43-5.44-.21-2.33-.09-4.31.38-5.94-1.52.67-3.11,1.02-4.76,1.06-.64,0-13.99,1.98-40.07,5.94-25.44,3.84-45.32,5.75-59.63,5.75h-19.18v-8.75h19.24c13.67,0,33.32-1.65,58.93-4.94,26.29-3.42,39.52-5.13,39.69-5.13,2.37-.04,4.27-.19,5.71-.44-3.98-7.92-13.06-11.88-27.24-11.88-4.28,0-15.3.9-33.08,2.69-17.78,1.79-29.87,2.69-36.26,2.69-15.41,0-23.12-2.67-23.12-8,0-.54.08-1.08.26-1.63,1.57-5.54,4.02-10.25,7.37-14.13,2.67-3.09,6.9-6.65,12.7-10.69,13.5-9.42,23.47-14.15,29.91-14.19,3.56-.04,5.33,1.1,5.33,3.44,0,1.21-.74,3.29-2.22,6.25-.68,1.33-1.12,2-1.33,2-.47,0-.93-.73-1.4-2.19-.51-1.63-1.86-2.4-4.06-2.31-1.23.17-4.19,1.36-8.89,3.56-5.29,2.5-9.74,4.98-13.34,7.44-12.62,8.59-18.97,14.44-19.05,17.57-.04,1.33,1.8,2.52,5.53,3.56,4.53,1.21,10.86,1.79,18.99,1.75,3.64-.04,13.86-.89,30.67-2.56,16.64-1.67,27.31-2.5,32.01-2.5,9.86,0,16.93.79,21.21,2.38,5.08,1.88,9.02,5.63,11.81,11.26.21.46.32,1.02.32,1.69,0,2.92-1.36,5.84-4.06,8.75.08.21.13.8.13,1.78s.57,1.93,1.71,2.85c.8.62,2.07.94,3.81.94v8.75Z"/>
    <path class="cls-3" d="M672.31,84.07l-.25,3.38c-3.47,1.63-9.12,4.36-16.95,8.19-5.25,2.63-12.49,6.5-21.72,11.63l.32-3.44c4.36-2.46,11.56-6.34,21.59-11.63,4.06-2.04,9.74-4.75,17.02-8.13Z"/>
    <path class="cls-5" d="M678.97,159.98c-4.57,0-10.31-2.5-17.21-7.5-.34,1.75-1.02,3.52-2.03,5.31-1.19,2.09-2.33,3.19-3.43,3.31-1.02.12-3.01-.65-5.97-2.31-3.81-2.13-7.05-4.88-9.72-8.25-1.44,1.96-3.37,3.9-5.78,5.82-3.13,2.42-5.82,3.63-8.06,3.63v-8.75c3.56,0,6.42-.54,8.6-1.63,2.18-1.08,4.5-3.19,6.95-6.31.51.25.99.1,1.46-.44,3.22-3.92,6.22-5.88,9.02-5.88,2.37,0,4.21.66,5.52,1.97,1.31,1.31,2.62,2.64,3.94,3.97,7.15,5.55,12.72,8.32,16.7,8.32v8.75ZM656.3,151.73c-.21-2.17-1.04-3.94-2.48-5.31-1.23-1.21-2.56-1.81-4-1.81-.72.12-1.8.52-3.24,1.19,2.62,2.13,5.86,4.11,9.72,5.94Z"/>
    <path class="cls-3" d="M690.59,35.35c0,1.42-.59,2.66-1.78,3.72-1.19,1.06-2.41,1.59-3.68,1.59-1.69,0-2.54-1.1-2.54-3.31,0-1.58.4-3.23,1.21-4.94.51-1,1.04-2,1.59-3,.13-.33.68-1.52,1.65-3.56.08-.21.27-.42.57-.63.38-.21.57-.15.57.19,0,.21-.7,1.94-2.09,5.19.97-.12,1.97.27,2.98,1.19s1.52,2.1,1.52,3.56ZM688.94,36.41c-.89-2.04-2.31-2.94-4.25-2.69-.42.63-.57,1.36-.44,2.19.13.42.46,1,1.02,1.75.85-.17,2.07-.58,3.68-1.25Z"/>
    <path class="cls-5" d="M694.15,135.97c.17,8-1.08,13.82-3.75,17.45-3.22,4.38-7.03,6.57-11.43,6.57v-8.75c3.51,0,6.12-.5,7.81-1.5,1.35-.75,2.5-2.1,3.43-4.06.08-.12.13-.46.13-1,0-3.83-2.14-21.97-6.41-54.4-.72-5.59-1.27-11.88-1.65-18.88-.09-.25-.47-.83-1.14-1.75-.25-.33-.38-.79-.38-1.37,0-1.13.68-3.77,2.03-7.94.08-.29.21-.44.38-.44.42,0,1.02.96,1.78,2.88,4.36,8.13,6.54,13.4,6.54,15.82,0,.42-.13.62-.38.62-.21,0-.49-.12-.83-.37-.09-.08-1.21-1.29-3.37-3.63,2.16,15.51,4.57,35.77,7.24,60.78Z"/>
    <path class="cls-3" d="M718.19,35.56c-.49-.51-1.23-.74-2.2-.7-1.64.08-3.68,1.31-6.1,3.69-1.73,1.71-3.11,3.38-4.12,5-.29-.04-.89-.33-1.81-.88-.91-.54-1.68-.79-2.31-.75-2.04.09-4.62,2.56-7.75,7.45-.64.96-.96,1.64-.96,2.06,0,.16.09.26.25.3.47,0,1.07-.43,1.79-1.31,1.19-1.41,2.43-2.32,3.75-2.75.29-.08,1.28.38,2.97,1.38s3.03,1.39,4,1.18c3.52-.75,6.55-2.27,9.08-4.56,2.71-2.51,4.08-5.24,4.12-8.2,0-.79-.24-1.43-.72-1.93ZM713.2,43.02c-1.52.81-2.99,1.22-4.38,1.22-.39,0-.75-.04-1.08-.12,1.27-2.55,3.17-3.82,5.71-3.82,1.36,0,2.03.25,2.03.75s-.76,1.16-2.28,1.97Z"/>
    <path class="cls-5" d="M719.04,139.72c.17,2.08.26,4.1.26,6.07,0,6.92-.83,11.9-2.48,14.94-.64,1.17-1.1,1.75-1.4,1.75-.47,0-.53-1.33-.19-4,.42-3.38.45-6.9.06-10.57-1.52-11.92-3.64-29.85-6.35-53.77-.34-4.38-.91-10.69-1.71-18.95-.13-.46-.7-1.69-1.71-3.69-.25-.46.42-3.1,2.03-7.94.08-.29.21-.44.38-.44.42,0,1.02.9,1.78,2.69,1.31,2.75,2.6,5.5,3.87,8.25,2.03,4.25,3.05,6.9,3.05,7.94,0,.33-.13.5-.38.5-.17,0-.44-.12-.83-.37-1.06-.79-2.18-1.79-3.37-3-.08,1.17.78,8.84,2.6,23.01,2.2,16.88,3.66,29.41,4.38,37.58Z"/>
  </g>
  <text class="cls-4" transform="translate(45.78 232.17) scale(1.02 1)"><tspan x="0" y="0">مكتبة تكاملت موضوعاتها و كتبها</tspan></text>
</svg>