<svg width="60" height="60" viewBox="0 0 60 60" fill="none" xmlns="http://www.w3.org/2000/svg">
<path d="M29.4471 8.36906C29.4471 8.36906 28.0187 3.86282 24.1771 3.25908C24.1771 3.25908 25.6958 5.32613 23.8251 6.27677C23.8251 6.27677 23.8101 3.66635 20.7628 3.63633C17.7155 3.60632 15.1961 5.37149 14.2302 7.60466C13.2644 9.83782 13.5666 13.127 14.6528 14.6654L13.6522 13.6619C13.6522 13.6619 11.2436 7.00023 16.7349 3.4095C22.2263 -0.181225 29.3789 2.98689 29.9965 7.7851V8.36496L29.4471 8.36906Z" fill="#2C6E4A"/>
<path d="M32.305 27.5207C32.305 27.5207 34.9199 25.2275 32.6672 21.8074C30.4145 18.3872 27.1152 17.5829 25.989 13.7605C25.989 13.7605 25.7479 15.2695 24.3179 14.6658C22.8878 14.0621 21.5018 12.3924 20.657 13.4788C20.657 13.4788 20.9789 10.3806 24.0164 11.2054C24.0164 11.2054 22.942 4.50623 29.9964 0V1.04615C29.9964 1.04615 25.8356 4.58162 26.1486 9.77823C26.4617 14.9748 29.5278 17.3826 31.419 18.791C33.3101 20.1994 35.3817 23.4784 34.4564 25.5506L32.305 27.5207Z" fill="#BA4749"/>
<path d="M31.8483 9.31418C31.8483 9.68023 31.7398 10.0381 31.5365 10.3424C31.3331 10.6468 31.0441 10.884 30.706 11.0241C30.3678 11.1642 29.9957 11.2008 29.6368 11.1294C29.2778 11.058 28.948 10.8817 28.6892 10.6229C28.4304 10.364 28.2542 10.0343 28.1828 9.67525C28.1114 9.31623 28.148 8.94409 28.2881 8.60591C28.4281 8.26772 28.6653 7.97867 28.9697 7.7753C29.274 7.57193 29.6318 7.46338 29.9978 7.46338C30.4886 7.46338 30.9593 7.65838 31.3063 8.00547C31.6534 8.35256 31.8483 8.82331 31.8483 9.31418Z" fill="#2C6E4A"/>
<path d="M8.50903 8.51259C8.50903 8.51259 8.91625 8.93521 11.3251 8.46961C13.9086 7.97059 17.2189 7.52409 17.7417 9.13339C17.7417 9.13339 17.9525 5.24931 22.0465 7.06122C22.0465 7.06122 18.2748 8.87177 18.636 12.7043C18.9971 16.5369 24.0973 17.9231 27.2953 14.9675C30.4934 12.0119 29.5882 9.31451 29.5882 9.31451H30.0998L29.9951 12.3421C29.9951 12.3421 30.0094 15.1282 26.1473 17.2198C22.2852 19.3114 21.2897 22.5409 21.7136 25.3471C22.129 28.1076 24.3548 30.0505 26.1791 30.1132C26.2094 30.1132 26.2398 30.1132 26.2698 30.1132H23.2225C23.2225 30.1132 18.6363 25.1332 20.6577 18.6766C21.188 18.806 21.7445 18.7778 22.259 18.5955C22.7735 18.4133 23.2236 18.0849 23.5543 17.6506C23.5543 17.6506 19.6322 18.254 18.2137 14.6633C16.7953 11.0725 14.2916 10.6799 11.4551 11.5552C11.4551 11.5552 12.6017 9.26164 16.0112 9.71325C16.0112 9.71325 14.9151 8.32465 12.29 8.95874C9.91622 9.53213 9.17477 9.17261 9.17477 9.17261L8.50903 8.51259Z" fill="#2C6E4A"/>
<path d="M30.5431 8.3691C30.5431 8.3691 31.9715 3.86287 35.8135 3.25912C35.8135 3.25912 34.2947 5.32617 36.1654 6.27681C36.1654 6.27681 36.1804 3.66639 39.2281 3.63637C42.2757 3.60636 44.7948 5.37153 45.7603 7.6047C46.7258 9.83786 46.424 13.1271 45.3377 14.6654L46.3421 13.608C46.3421 13.608 48.7473 6.99925 43.2559 3.4092C37.7646 -0.180842 30.612 2.98658 29.9944 7.7848V8.36467L30.5431 8.3691Z" fill="#2C6E4A"/>
<path d="M27.6868 27.5206C27.6868 27.5206 25.072 25.2274 27.3246 21.8072C29.5773 18.387 32.876 17.5824 34.0015 13.76C34.0015 13.76 34.2429 15.2691 35.6726 14.6653C37.1023 14.0616 38.4887 12.3919 39.3335 13.4783C39.3335 13.4783 39.0119 10.3801 35.9745 11.2049C35.9745 11.2049 37.0488 4.50575 29.9944 -0.000488281V1.04566C29.9944 1.04566 34.1553 4.58113 33.8422 9.77774C33.5291 14.9744 30.463 17.3822 28.5722 18.7905C26.6814 20.1989 24.6095 23.4779 25.5348 25.5501L27.6868 27.5206Z" fill="#BA4749"/>
<path d="M28.1436 9.31418C28.1436 9.68023 28.2521 10.0381 28.4554 10.3424C28.6588 10.6468 28.9478 10.884 29.2859 11.0241C29.6241 11.1642 29.9962 11.2008 30.3551 11.1294C30.7141 11.058 31.0439 10.8817 31.3027 10.6229C31.5615 10.364 31.7377 10.0343 31.8091 9.67525C31.8805 9.31623 31.8439 8.94409 31.7038 8.60591C31.5637 8.26772 31.3266 7.97867 31.0222 7.7753C30.7179 7.57193 30.3601 7.46338 29.9941 7.46338C29.5033 7.46338 29.0326 7.65838 28.6856 8.00547C28.3385 8.35256 28.1436 8.82331 28.1436 9.31418Z" fill="#2C6E4A"/>
<path d="M51.4825 8.51259C51.4825 8.51259 51.0753 8.93521 48.6664 8.46961C46.0829 7.97059 42.7726 7.52409 42.2498 9.13339C42.2498 9.13339 42.039 5.24931 37.945 7.06122C37.945 7.06122 41.7167 8.87177 41.3556 12.7043C40.9944 16.5369 35.8943 17.9231 32.6958 14.9675C29.4974 12.0119 30.4029 9.31451 30.4029 9.31451H29.8914L29.9961 12.3421C29.9961 12.3421 29.9817 15.1282 33.8438 17.2198C37.7059 19.3114 38.7018 22.5409 38.2793 25.3471C37.8639 28.1076 35.6381 30.0505 33.8138 30.1132C33.7835 30.1132 33.7535 30.1132 33.7231 30.1132H36.7673C36.7673 30.1132 41.3535 25.1332 39.3321 18.6766C38.8018 18.806 38.2453 18.7778 37.7308 18.5955C37.2163 18.4133 36.7662 18.0849 36.4355 17.6506C36.4355 17.6506 40.3576 18.254 41.7761 14.6633C43.1945 11.0725 45.6982 10.6799 48.5348 11.5552C48.5348 11.5552 47.3881 9.26164 43.9786 9.71325C43.9786 9.71325 45.0748 8.32465 47.6999 8.95874C50.0733 9.53213 50.8185 9.17944 50.8185 9.17944L51.4825 8.51259Z" fill="#2C6E4A"/>
<path d="M8.3678 30.5519C8.3678 30.5519 3.86213 31.98 3.25778 35.8218C3.25778 35.8218 5.32457 34.3029 6.27509 36.1738C6.27509 36.1738 3.66534 36.1888 3.63499 39.2365C3.60464 42.2842 5.36993 44.8039 7.60248 45.7696C9.83502 46.7352 13.1241 46.4333 14.6623 45.347L13.6616 46.3392C13.6616 46.3392 6.99813 48.7565 3.40785 43.2645C-0.182433 37.7725 2.98528 30.619 7.78289 30.001H8.36269L8.3678 30.5519Z" fill="#2C6E4A"/>
<path d="M27.5161 27.6951C27.5161 27.6951 25.2228 25.0799 21.8034 27.3328C18.384 29.5858 17.5791 32.8852 13.7576 34.0119C13.7576 34.0119 15.2661 34.2533 14.6628 35.6832C14.0594 37.1131 12.3896 38.4997 13.4759 39.3446C13.4759 39.3446 10.3781 39.0229 11.2028 35.9851C11.2028 35.9851 4.50445 37.0596 -0.0012207 30.0043H1.04479C1.04479 30.0043 4.57982 34.1657 9.77579 33.8529C14.9718 33.5401 17.3793 30.4733 18.7875 28.5819C20.1957 26.6905 23.4742 24.6187 25.5461 25.5441L27.5161 27.6951Z" fill="#BA4749"/>
<path d="M9.31321 31.8534C10.3352 31.8534 11.1638 31.0248 11.1638 30.0026C11.1638 28.9805 10.3352 28.1519 9.31321 28.1519C8.29117 28.1519 7.46265 28.9805 7.46265 30.0026C7.46265 31.0248 8.29117 31.8534 9.31321 31.8534Z" fill="#2C6E4A"/>
<path d="M8.51137 51.4942C8.51137 51.4942 8.93394 51.0866 8.4684 48.6778C7.96943 46.0936 7.52299 42.7833 9.13209 42.26C9.13209 42.26 5.2485 42.0492 7.06018 37.9551C7.06018 37.9551 8.8705 41.7272 12.7026 41.366C16.5347 41.0048 17.9207 35.904 14.9655 32.7056C12.0102 29.5071 9.31319 30.412 9.31319 30.412V29.9004L12.3404 30.0051C12.3404 30.0051 15.1261 29.9911 17.2175 33.8534C19.3088 37.7156 22.5379 38.7116 25.3438 38.2876C28.1039 37.8722 30.0466 35.6465 30.1093 33.8216C30.1093 33.7913 30.1093 33.7613 30.1093 33.7309V36.7786C30.1093 36.7786 25.1299 41.3653 18.6741 39.3437C18.8035 38.8133 18.7753 38.2568 18.5931 37.7422C18.4108 37.2276 18.0825 36.7774 17.6482 36.4467C17.6482 36.4467 18.2519 40.3693 14.6613 41.788C11.0706 43.2066 10.6784 45.7106 11.5536 48.5475C11.5536 48.5475 9.26032 47.4007 9.71188 43.9908C9.71188 43.9908 8.32379 45.0874 8.95747 47.7125C9.53078 50.0862 9.17199 50.8284 9.17199 50.8284L8.51137 51.4942Z" fill="#2C6E4A"/>
<path d="M8.36776 29.4579C8.36776 29.4579 3.86209 28.0293 3.25842 24.1869C3.25842 24.1869 5.32521 25.7058 6.27573 23.8349C6.27573 23.8349 3.66598 23.8199 3.63562 20.7722C3.60527 17.7245 5.37057 15.2048 7.60311 14.2391C9.83565 13.2735 13.1248 13.5754 14.6629 14.6617L13.6524 13.6627C13.6524 13.6627 6.9991 11.2518 3.40882 16.7438C-0.181457 22.2358 2.98626 29.3893 7.78387 30.007H8.36366L8.36776 29.4579Z" fill="#2C6E4A"/>
<path d="M27.5161 32.3145C27.5161 32.3145 25.2228 34.9297 21.8034 32.6768C18.384 30.4238 17.5791 27.1244 13.7576 25.9978C13.7576 25.9978 15.2661 25.7563 14.6628 24.3264C14.0594 22.8965 12.3896 21.5099 13.4759 20.665C13.4759 20.665 10.3781 20.987 11.2028 24.0248C11.2028 24.0248 4.50445 22.9504 -0.0012207 30.0056H1.04479C1.04479 30.0056 4.57982 25.8443 9.77579 26.1574C14.9718 26.4705 17.3793 29.537 18.7875 31.4284C20.1957 33.3197 23.4742 35.3916 25.5461 34.4662L27.5161 32.3145Z" fill="#BA4749"/>
<path d="M9.31369 31.8578C9.6797 31.8578 10.0375 31.7493 10.3418 31.5459C10.6461 31.3426 10.8833 31.0535 11.0234 30.7153C11.1635 30.3771 11.2001 30.005 11.1287 29.646C11.0573 29.287 10.881 28.9572 10.6222 28.6983C10.3634 28.4395 10.0337 28.2632 9.67472 28.1918C9.31575 28.1204 8.94366 28.157 8.60552 28.2971C8.26737 28.4372 7.97835 28.6744 7.77501 28.9788C7.57167 29.2832 7.46313 29.641 7.46313 30.007C7.46313 30.4979 7.6581 30.9687 8.00515 31.3157C8.3522 31.6628 8.82289 31.8578 9.31369 31.8578Z" fill="#2C6E4A"/>
<path d="M8.51137 8.51562C8.51137 8.51562 8.93394 8.9229 8.4684 11.3321C7.96943 13.9159 7.52299 17.2262 9.13209 17.7495C9.13209 17.7495 5.2485 17.9603 7.06018 22.0545C7.06018 22.0545 8.8705 18.2823 12.7026 18.6435C16.5347 19.0047 17.9207 24.1055 14.9655 27.3039C12.0102 30.5024 9.31319 29.5975 9.31319 29.5975V30.1091L12.3404 30.0044C12.3404 30.0044 15.1261 30.0184 17.2175 26.1561C19.3088 22.2939 22.5379 21.2979 25.3438 21.7219C28.1039 22.1373 30.0466 24.3633 30.1093 26.1879C30.1093 26.2182 30.1093 26.2482 30.1093 26.2786V23.2309C30.1093 23.2309 25.1299 18.6442 18.6741 20.6658C18.8035 21.1962 18.7753 21.7527 18.5931 22.2673C18.4108 22.7819 18.0825 23.2321 17.6482 23.5628C17.6482 23.5628 18.2519 19.6402 14.6613 18.2215C11.0706 16.8029 10.6784 14.2989 11.5536 11.462C11.5536 11.462 9.26032 12.6088 9.71188 16.0187C9.71188 16.0187 8.32379 14.9221 8.95747 12.297C9.53078 9.92299 9.17131 9.17565 9.17131 9.17565L8.51137 8.51562Z" fill="#2C6E4A"/>
<path d="M30.5494 51.6308C30.5494 51.6308 31.9778 56.137 35.8198 56.7408C35.8198 56.7408 34.301 54.6737 36.1717 53.7231C36.1717 53.7231 36.1867 56.3335 39.2341 56.3635C42.2814 56.3935 44.8007 54.6283 45.7666 52.3952C46.7325 50.162 46.4303 46.8732 45.344 45.3345L46.3392 46.3434C46.3392 46.3434 48.7536 52.9993 43.2622 56.5903C37.7709 60.1814 30.618 57.0123 30 52.2147V51.6349L30.5494 51.6308Z" fill="#2C6E4A"/>
<path d="M27.693 32.479C27.693 32.479 25.0781 34.7725 27.3311 38.1924C29.5841 41.6122 32.8828 42.4186 34.0103 46.2388C34.0103 46.2388 34.2515 44.7298 35.6798 45.3336C37.1081 45.9373 38.4959 47.607 39.3407 46.5206C39.3407 46.5206 39.0187 49.6184 35.9813 48.7937C35.9813 48.7937 37.0556 55.4928 30.0012 59.9994V58.9533C30.0012 58.9533 34.1621 55.4178 33.849 50.2212C33.5359 45.0245 30.4699 42.6167 28.5791 41.2087C26.6882 39.8006 24.6163 36.5213 25.5416 34.4492L27.693 32.479Z" fill="#BA4749"/>
<path d="M28.1482 50.6853C28.1482 50.3192 28.2567 49.9614 28.4601 49.657C28.6634 49.3527 28.9524 49.1154 29.2906 48.9753C29.6287 48.8353 30.0008 48.7986 30.3598 48.87C30.7188 48.9415 31.0485 49.1177 31.3073 49.3765C31.5661 49.6354 31.7424 49.9652 31.8138 50.3242C31.8852 50.6832 31.8485 51.0553 31.7084 51.3935C31.5684 51.7317 31.3312 52.0208 31.0269 52.2241C30.7225 52.4275 30.3648 52.5361 29.9988 52.5361C29.508 52.5361 29.0373 52.3411 28.6902 51.994C28.3432 51.6469 28.1482 51.1761 28.1482 50.6853Z" fill="#2C6E4A"/>
<path d="M51.4891 51.4872C51.4891 51.4872 51.0818 51.0649 48.673 51.5302C46.0892 52.0292 42.7792 52.4757 42.2561 50.8664C42.2561 50.8664 42.0453 54.7505 37.9516 52.9382C37.9516 52.9382 41.7233 51.1277 41.3621 47.2955C41.001 43.4633 35.9008 42.0767 32.7028 45.0323C29.5047 47.9879 30.4095 50.6853 30.4095 50.6853H29.8979L30.0026 47.6577C30.0026 47.6577 29.9883 44.8713 33.8508 42.78C37.7132 40.6888 38.7084 37.4589 38.2845 34.6524C37.8691 31.8919 35.6433 29.9487 33.819 29.8862C33.789 29.8862 33.7587 29.8862 33.7287 29.8862H36.7763C36.7763 29.8862 41.3625 34.8662 39.341 41.3232C38.8108 41.1938 38.2543 41.222 37.7398 41.4043C37.2253 41.5865 36.7751 41.9149 36.4445 42.3492C36.4445 42.3492 40.3666 41.7458 41.7851 45.3369C43.2035 48.928 45.7072 49.3199 48.5437 48.445C48.5437 48.445 47.3971 50.7385 43.9876 50.2869C43.9876 50.2869 45.0837 51.6752 47.7088 51.0414C50.0826 50.468 50.8155 50.8187 50.8155 50.8187L51.4891 51.4872Z" fill="#2C6E4A"/>
<path d="M29.4552 51.6308C29.4552 51.6308 28.0269 56.137 24.1849 56.7408C24.1849 56.7408 25.7036 54.6737 23.8329 53.7231C23.8329 53.7231 23.8179 56.3335 20.7703 56.3635C17.7226 56.3935 15.2036 54.6283 14.238 52.3952C13.2725 50.162 13.5744 46.8732 14.6606 45.3345L13.6634 46.3407C13.6634 46.3407 11.2511 52.9993 16.7424 56.59C22.2337 60.1807 29.3867 57.0126 30.004 52.2144V51.6345L29.4552 51.6308Z" fill="#2C6E4A"/>
<path d="M32.3121 32.479C32.3121 32.479 34.9274 34.7725 32.6743 38.1924C30.4213 41.6122 27.1216 42.4186 25.9951 46.2388C25.9951 46.2388 25.7537 44.7298 24.324 45.3336C22.8943 45.9373 21.5079 47.607 20.6631 46.5206C20.6631 46.5206 20.985 49.6184 24.0225 48.7937C24.0225 48.7937 22.9482 55.4928 30.0025 59.9994V58.9533C30.0025 58.9533 25.8417 55.4178 26.1548 50.2212C26.4678 45.0245 29.5339 42.6167 31.4247 41.2087C33.3155 39.8006 35.3874 36.5213 34.4621 34.4492L32.3121 32.479Z" fill="#BA4749"/>
<path d="M31.8547 50.6853C31.8547 50.3192 31.7462 49.9614 31.5428 49.657C31.3395 49.3527 31.0505 49.1154 30.7123 48.9753C30.3742 48.8353 30.0021 48.7986 29.6431 48.87C29.2841 48.9415 28.9544 49.1177 28.6956 49.3765C28.4368 49.6354 28.2605 49.9652 28.1891 50.3242C28.1177 50.6832 28.1544 51.0553 28.2944 51.3935C28.4345 51.7317 28.6717 52.0208 28.976 52.2241C29.2803 52.4275 29.6381 52.5361 30.0041 52.5361C30.4949 52.5361 30.9656 52.3411 31.3127 51.994C31.6597 51.6469 31.8547 51.1761 31.8547 50.6853Z" fill="#2C6E4A"/>
<path d="M8.51538 51.4872C8.51538 51.4872 8.9226 51.0649 11.3315 51.5302C13.915 52.0292 17.2252 52.4757 17.7481 50.8664C17.7481 50.8664 17.9588 54.7505 22.0525 52.9382C22.0525 52.9382 18.2811 51.1277 18.642 47.2955C19.0028 43.4633 24.1033 42.0767 27.3013 45.0323C30.4994 47.9879 29.5943 50.6853 29.5943 50.6853H30.1058L30.0011 47.6577C30.0011 47.6577 30.0151 44.8713 26.1534 42.78C22.2916 40.6888 21.2954 37.4589 21.7196 34.6524C22.135 31.8919 24.3608 29.9487 26.1851 29.8862C26.2154 29.8862 26.2458 29.8862 26.2758 29.8862H23.2285C23.2285 29.8862 18.6423 34.8662 20.6637 41.3232C21.194 41.1938 21.7505 41.222 22.265 41.4043C22.7795 41.5865 23.2297 41.9149 23.5603 42.3492C23.5603 42.3492 19.6382 41.7458 18.2197 45.3369C16.8013 48.928 14.2976 49.3199 11.4611 48.445C11.4611 48.445 12.6077 50.7385 16.0172 50.2869C16.0172 50.2869 14.9207 51.6752 12.296 51.0414C9.92257 50.468 9.17464 50.832 9.17464 50.832L8.51538 51.4872Z" fill="#2C6E4A"/>
<path d="M51.6322 29.4518C51.6322 29.4518 56.1382 28.0233 56.7415 24.1809C56.7415 24.1809 54.6747 25.6998 53.7242 23.8289C53.7242 23.8289 56.334 23.8138 56.3643 20.7661C56.3947 17.7184 54.6294 15.1988 52.3965 14.2331C50.1636 13.2675 46.8748 13.5693 45.3367 14.6557L46.394 13.6515C46.394 13.6515 53.0019 11.2458 56.5915 16.7381C60.1811 22.2305 57.0137 29.3836 52.2164 30.0013H51.6366L51.6322 29.4518Z" fill="#2C6E4A"/>
<path d="M32.4827 32.3087C32.4827 32.3087 34.7759 34.9242 38.1953 32.6709C41.6147 30.4176 42.4196 27.1185 46.2411 25.9919C46.2411 25.9919 44.7326 25.7504 45.336 24.3205C45.9393 22.8906 47.6091 21.5041 46.5229 20.6592C46.5229 20.6592 49.6206 20.9812 48.7956 24.019C48.7956 24.019 55.4939 22.9445 60 29.9998H58.9539C58.9539 29.9998 55.4189 25.8384 50.2229 26.1515C45.027 26.4647 42.6195 29.5315 41.2116 31.4225C39.8037 33.3135 36.5248 35.3857 34.4529 34.4603L32.4827 32.3087Z" fill="#BA4749"/>
<path d="M50.6867 31.852C50.3207 31.852 49.9629 31.7434 49.6586 31.5401C49.3543 31.3367 49.1171 31.0476 48.977 30.7095C48.837 30.3713 48.8003 29.9991 48.8717 29.6401C48.9431 29.2811 49.1194 28.9513 49.3782 28.6925C49.637 28.4336 49.9667 28.2574 50.3257 28.186C50.6847 28.1145 51.0568 28.1512 51.3949 28.2913C51.7331 28.4314 52.0221 28.6686 52.2254 28.9729C52.4288 29.2773 52.5373 29.6351 52.5373 30.0012C52.5373 30.2442 52.4894 30.4849 52.3964 30.7095C52.3034 30.934 52.1671 31.138 51.9953 31.3099C51.8234 31.4818 51.6194 31.6181 51.3949 31.7111C51.1704 31.8041 50.9298 31.852 50.6867 31.852Z" fill="#2C6E4A"/>
<path d="M51.489 8.50977C51.489 8.50977 51.0664 8.91704 51.5319 11.3262C52.0309 13.91 52.4773 17.2207 50.8683 17.7436C50.8683 17.7436 54.7518 17.9544 52.9401 22.0486C52.9401 22.0486 51.1298 18.2764 47.2981 18.6376C43.4663 18.9988 42.0782 24.0993 45.0352 27.2981C47.9921 30.4969 50.6861 29.5926 50.6861 29.5926V30.1043L47.6589 29.9996C47.6589 29.9996 44.8732 30.0139 42.7818 26.1513C40.6905 22.2887 37.4614 21.2931 34.6552 21.717C31.895 22.1325 29.9524 24.3585 29.8896 26.183C29.8896 26.2134 29.8896 26.2434 29.8896 26.2734V23.2257C29.8896 23.2257 34.8691 18.639 41.3249 20.6607C41.1955 21.191 41.2237 21.7476 41.4059 22.2621C41.5881 22.7767 41.9165 23.2269 42.3508 23.5576C42.3508 23.5576 41.7471 19.635 45.3377 18.2164C48.9283 16.7977 49.3205 14.2937 48.4454 11.4568C48.4454 11.4568 50.7386 12.6036 50.2871 16.0136C50.2871 16.0136 51.6755 14.9169 51.0415 12.2919C50.4682 9.91782 50.8222 9.1831 50.8222 9.1831L51.489 8.50977Z" fill="#2C6E4A"/>
<path d="M51.6322 30.5461C51.6322 30.5461 56.1382 31.9746 56.7415 35.8171C56.7415 35.8171 54.6747 34.2982 53.7242 36.1691C53.7242 36.1691 56.334 36.1841 56.3643 39.2318C56.3947 42.2795 54.6294 44.7992 52.3965 45.7648C50.1636 46.7305 46.8748 46.4286 45.3367 45.3422L46.3394 46.3426C46.3394 46.3426 53.0005 48.7521 56.5911 43.2601C60.1818 37.7681 57.0134 30.6143 52.2161 29.9966H51.6363L51.6322 30.5461Z" fill="#2C6E4A"/>
<path d="M32.4829 27.6892C32.4829 27.6892 34.7762 25.074 38.1956 27.3269C41.615 29.5799 42.4199 32.8793 46.2414 34.006C46.2414 34.006 44.7329 34.2475 45.3362 35.6773C45.9395 37.1072 47.6094 38.4938 46.5231 39.3387C46.5231 39.3387 49.6209 39.0167 48.7959 35.9792C48.7959 35.9792 55.4942 37.0537 60.0002 29.9984H58.9542C58.9542 29.9984 55.4192 34.1598 50.2232 33.847C45.0272 33.5342 42.6197 30.4671 41.2119 28.576C39.804 26.685 36.5251 24.6128 34.4532 25.5382L32.4829 27.6892Z" fill="#BA4749"/>
<path d="M50.687 28.146C50.321 28.146 49.9632 28.2545 49.6589 28.4579C49.3545 28.6613 49.1173 28.9503 48.9773 29.2885C48.8372 29.6267 48.8006 29.9988 48.872 30.3579C48.9434 30.7169 49.1196 31.0467 49.3784 31.3055C49.6372 31.5643 49.967 31.7406 50.326 31.812C50.6849 31.8834 51.057 31.8468 51.3952 31.7067C51.7333 31.5666 52.0223 31.3294 52.2257 31.025C52.429 30.7207 52.5376 30.3628 52.5376 29.9968C52.5376 29.7537 52.4897 29.5131 52.3967 29.2885C52.3037 29.064 52.1674 28.8599 51.9955 28.6881C51.8237 28.5162 51.6197 28.3799 51.3952 28.2869C51.1706 28.1939 50.93 28.146 50.687 28.146Z" fill="#2C6E4A"/>
<path d="M51.4891 51.4888C51.4891 51.4888 51.0665 51.0812 51.532 48.6721C52.031 46.0883 52.4774 42.7779 50.8684 42.2547C50.8684 42.2547 54.7519 42.0439 52.9402 37.9497C52.9402 37.9497 51.1299 41.7219 47.2982 41.3607C43.4664 40.9994 42.0784 35.8987 45.0353 32.7002C47.9922 29.5017 50.6876 30.4067 50.6876 30.4067V29.895L47.6604 29.9997C47.6604 29.9997 44.8747 29.9854 42.7833 33.8483C40.692 37.7113 37.4629 38.7066 34.6567 38.2826C31.8965 37.8671 29.9539 35.6411 29.8911 33.8166C29.8911 33.7862 29.8911 33.7562 29.8911 33.7259V36.7736C29.8911 36.7736 34.8705 41.3603 41.3263 39.3386C41.1971 38.8083 41.2253 38.2519 41.4075 37.7374C41.5897 37.2229 41.918 36.7727 42.3522 36.442C42.3522 36.442 41.7485 40.3647 45.3392 41.7833C48.9298 43.2019 49.322 45.7059 48.4469 48.5428C48.4469 48.5428 50.7401 47.3964 50.2886 43.9861C50.2886 43.9861 51.677 45.0824 51.043 47.7078C50.4697 50.0818 50.8179 50.8162 50.8179 50.8162L51.4891 51.4888Z" fill="#2C6E4A"/>
<path d="M29.9998 29.0021C30.0471 29.0131 30.0967 29.0072 30.1399 28.9853C30.1832 28.9634 30.2174 28.927 30.2365 28.8824C30.7682 27.825 31.3064 26.71 31.3085 25.5004C31.3085 24.3475 30.8051 23.2833 30.2127 22.3204C30.1904 22.284 30.1592 22.2539 30.122 22.233C30.0848 22.2121 30.0428 22.2012 30.0002 22.2012C29.9575 22.2012 29.9156 22.2121 29.8784 22.233C29.8412 22.2539 29.81 22.284 29.7877 22.3204C29.1936 23.284 28.6939 24.3458 28.6919 25.5004C28.6895 26.7083 29.2332 27.8274 29.7635 28.8824C29.7827 28.9269 29.8168 28.9632 29.86 28.985C29.9032 29.0069 29.9527 29.013 29.9998 29.0021Z" fill="#BA4749"/>
<path d="M37.6776 30.2127C37.7141 30.1904 37.7441 30.1592 37.765 30.1219C37.7859 30.0847 37.7968 30.0427 37.7968 30C37.7968 29.9574 37.7859 29.9154 37.765 29.8781C37.7441 29.8409 37.7141 29.8096 37.6776 29.7874C36.7142 29.1935 35.6525 28.6941 34.498 28.6914C33.2903 28.689 32.1713 29.2331 31.1165 29.7631C31.0794 29.7905 31.0493 29.8262 31.0286 29.8673C31.0079 29.9084 30.9971 29.9538 30.9971 29.9999C30.9971 30.0459 31.0079 30.0913 31.0286 30.1324C31.0493 30.1735 31.0794 30.2092 31.1165 30.2366C32.1737 30.7684 33.2886 31.3066 34.498 31.3087C35.6514 31.31 36.7172 30.8052 37.6776 30.2127Z" fill="#BA4749"/>
<path d="M30.0005 30.9976C29.9532 30.9866 29.9036 30.9925 29.8603 31.0144C29.817 31.0363 29.7827 31.0727 29.7635 31.1173C29.2321 32.1747 28.6936 33.2897 28.6919 34.4993C28.6919 35.6522 29.1953 36.7164 29.7877 37.6793C29.8099 37.7157 29.8412 37.7458 29.8784 37.7667C29.9156 37.7876 29.9575 37.7985 30.0002 37.7985C30.0428 37.7985 30.0848 37.7876 30.122 37.7667C30.1592 37.7458 30.1904 37.7157 30.2127 37.6793C30.8064 36.7154 31.3061 35.6539 31.3085 34.4993C31.3109 33.2914 30.7669 32.1723 30.2365 31.1173C30.2174 31.0729 30.1833 31.0367 30.1401 31.0148C30.097 30.9929 30.0476 30.9868 30.0005 30.9976Z" fill="#BA4749"/>
<path d="M22.3218 29.7874C22.2854 29.8096 22.2553 29.8409 22.2345 29.8781C22.2136 29.9154 22.2026 29.9573 22.2026 30C22.2026 30.0427 22.2136 30.0847 22.2345 30.1219C22.2553 30.1592 22.2854 30.1904 22.3218 30.2127C23.2853 30.8065 24.347 31.3042 25.5014 31.3086C26.7091 31.3114 27.8281 30.7673 28.8827 30.2366C28.9198 30.2093 28.9499 30.1736 28.9707 30.1325C28.9915 30.0914 29.0023 30.0459 29.0023 29.9999C29.0023 29.9538 28.9915 29.9084 28.9707 29.8672C28.9499 29.8261 28.9198 29.7905 28.8827 29.7631C27.8254 29.2317 26.7108 28.6931 25.5014 28.6914C24.3487 28.69 23.2825 29.1949 22.3218 29.7874Z" fill="#BA4749"/>
<path d="M24.508 26.9805C24.8618 27.4478 25.3788 27.7645 25.9558 27.8673C26.7233 28.0471 27.4807 28.2676 28.2248 28.528C28.2667 28.5392 28.3108 28.5391 28.3527 28.5278C28.3946 28.5166 28.4328 28.4945 28.4634 28.4638C28.4941 28.4331 28.5162 28.3949 28.5274 28.3531C28.5387 28.3112 28.5388 28.2671 28.5276 28.2252C28.2683 27.4807 28.0479 26.7232 27.8674 25.9558C27.7642 25.3789 27.4476 24.862 26.9806 24.5079C26.2907 24.0689 25.228 24.4397 25.2324 25.2327C24.4405 25.2279 24.069 26.2898 24.508 26.9805Z" fill="#BA4749"/>
<path d="M33.0193 24.5073C32.552 24.8611 32.2354 25.3782 32.1325 25.9552C31.9529 26.7229 31.7324 27.4804 31.4719 28.2245C31.4608 28.2665 31.4609 28.3106 31.4721 28.3525C31.4834 28.3944 31.5055 28.4325 31.5361 28.4632C31.5668 28.4939 31.605 28.516 31.6469 28.5272C31.6888 28.5385 31.7329 28.5386 31.7748 28.5274C32.5192 28.2681 33.2766 28.0476 34.0438 27.8667C34.6207 27.7636 35.1376 27.447 35.4916 26.9799C35.9302 26.2899 35.5598 25.2266 34.7669 25.2314C34.7709 24.4397 33.7099 24.0683 33.0193 24.5073Z" fill="#BA4749"/>
<path d="M35.4921 33.0197C35.1384 32.5523 34.6213 32.2356 34.0443 32.1329C33.2767 31.9531 32.5193 31.7326 31.7753 31.4722C31.7333 31.461 31.6892 31.4611 31.6474 31.4724C31.6055 31.4837 31.5673 31.5057 31.5366 31.5364C31.506 31.5671 31.4839 31.6053 31.4726 31.6471C31.4614 31.689 31.4613 31.7331 31.4724 31.775C31.7318 32.5195 31.9523 33.277 32.133 34.0444C32.2363 34.6213 32.5528 35.1382 33.0198 35.4923C33.7094 35.931 34.7724 35.5605 34.768 34.7675C35.5599 34.7719 35.9307 33.7101 35.4921 33.0197Z" fill="#BA4749"/>
<path d="M26.9813 35.4923C27.4484 35.1384 27.765 34.6214 27.8681 34.0444C28.0476 33.2767 28.268 32.5192 28.5283 31.7751C28.5395 31.7331 28.5394 31.689 28.5281 31.6471C28.5169 31.6053 28.4948 31.5671 28.4641 31.5364C28.4334 31.5057 28.3953 31.4836 28.3534 31.4724C28.3115 31.4611 28.2674 31.461 28.2255 31.4722C27.4811 31.7317 26.7238 31.9522 25.9565 32.1329C25.3796 32.2362 24.8628 32.5528 24.5087 33.0197C24.0701 33.7094 24.4405 34.773 25.2334 34.7678C25.2286 35.5599 26.2907 35.9313 26.9813 35.4923Z" fill="#BA4749"/>
</svg>
