<svg width="60" height="60" viewBox="0 0 60 60" fill="none" xmlns="http://www.w3.org/2000/svg">
<path d="M30.125 59.2501H29.9375L1.0625 51.3751C0.8125 51.2501 0.625 51.0001 0.625 50.7501V9.1876C0.625 9.0001 0.6875 8.8126 0.875 8.6876C1 8.5626 1.25 8.50011 1.4375 8.56261L30.3125 16.4376C30.5625 16.5001 30.8125 16.7501 30.75 17.0626V58.5626C30.75 58.7501 30.625 58.9376 30.5 59.0626C30.375 59.1876 30.25 59.2501 30.125 59.2501ZM1.875 50.2501L29.5 57.8126V17.5626L1.875 10.0001V50.2501Z" fill="#2C6E4A"/>
<path d="M30.125 59.2498C29.75 59.2498 29.5 58.9998 29.5 58.6248V17.0623C29.5 16.7498 29.6875 16.4998 29.9375 16.4373L58.5625 8.56227C58.875 8.49977 59.25 8.68727 59.3125 8.99977V50.7498C59.3125 51.0623 59.125 51.3123 58.875 51.3748L30.25 59.2498H30.125ZM30.75 17.5623V57.8123L58.125 50.2498V9.99977L30.75 17.5623Z" fill="#2C6E4A"/>
<path d="M58.6875 9.8125H58.5L30.125 2L1.43751 9.8125C1.06251 9.875 0.750012 9.6875 0.625012 9.375C0.562512 9.0625 0.750012 8.6875 1.06251 8.625L29.9375 0.75H30.25L58.8125 8.5625C59.1875 8.625 59.375 8.9375 59.375 9.25C59.3125 9.625 59 9.875 58.6875 9.8125ZM44.3125 54.5625V40.4375C44.3125 40.125 44.5 39.875 44.8125 39.8125L52.75 37.875C52.9375 37.8125 53.125 37.875 53.25 38C53.375 38.125 53.5 38.3125 53.5 38.5V52.375C53.5 52.75 52.25 52.75 52.25 52.375V39.25L45.5625 40.875V54.5625C45.5625 54.9375 44.3125 54.9375 44.3125 54.5625ZM56.9375 32.625C56.5625 32.6875 56.25 32.4375 56.25 32.0625C56.25 31.6875 56.4375 31.375 56.8125 31.375L58.625 30.875C58.9375 30.8125 59.25 32 58.9375 32.0625L57.125 32.5625C57.0625 32.625 57 32.625 56.9375 32.625ZM30.125 39.5625H30L28.125 39.0625C27.8125 39 27.5625 38.625 27.6875 38.3125C27.75 38 28.125 37.75 28.4375 37.875L30.1875 38.3125L31.75 37.9375C32.0625 37.875 32.4375 38.0625 32.5 38.375C32.5625 38.6875 32.375 39.0625 32.0625 39.125L30.375 39.5625H30.125ZM35.375 38.1875C35 38.25 34.6875 38 34.6875 37.625C34.6875 37.25 34.875 36.9375 35.25 36.9375L38.8125 36C39.125 35.9375 39.5 36.125 39.5625 36.4375C39.625 36.75 39.4375 37.125 39.125 37.1875L35.5625 38.125L35.375 38.1875ZM24.625 38.1875H24.5L20.875 37.25C20.5625 37.1875 20.3125 36.875 20.375 36.5C20.4375 36.1875 20.75 35.9375 21.125 36H21.25L24.875 36.9375C25.25 37 25.4375 37.3125 25.4375 37.625C25.4375 37.9375 24.9375 38.25 24.625 38.1875ZM42.5625 36.375C42.1875 36.4375 41.875 36.1875 41.875 35.8125C41.875 35.4375 42.0625 35.125 42.4375 35.125L46 34.1875C46.3125 34.125 46.6875 34.3125 46.75 34.625C46.8125 34.9375 46.625 35.3125 46.3125 35.375L42.75 36.3125L42.5625 36.375ZM17.4375 36.375H17.3125L13.75 35.375C13.4375 35.3125 13.1875 34.9375 13.3125 34.625C13.375 34.3125 13.75 34.0625 14.0625 34.1875L17.625 35.125C18 35.1875 18.1875 35.5 18.1875 35.8125C18.125 36.125 17.8125 36.375 17.4375 36.375ZM49.75 34.5C49.375 34.5625 49.0625 34.3125 49.0625 33.9375C49.0625 33.5625 49.25 33.25 49.625 33.25L53.1875 32.3125C53.5 32.25 53.875 32.4375 53.9375 32.75C54 33.0625 53.8125 33.4375 53.5 33.5L49.9375 34.4375L49.75 34.5ZM10.25 34.5H10.125L6.56251 33.5C6.25001 33.4375 6.00001 33.0625 6.12501 32.75C6.18751 32.4375 6.56251 32.1875 6.87501 32.3125L10.5 33.25C10.875 33.3125 11.0625 33.625 11.0625 33.9375C11.0625 34.25 10.625 34.5 10.25 34.5ZM3.06251 32.625H2.93751L1.12501 32.125C0.812512 32.0625 1.06251 30.8125 1.43751 30.875L3.25001 31.375C3.62501 31.4375 3.81251 31.75 3.81251 32.0625C3.81251 32.375 3.37501 32.6875 3.06251 32.625ZM30.125 31.5625H30L1.12501 24.125C0.812512 24.0625 1.00001 22.8125 1.31251 22.875H1.43751L30.125 30.25L58.625 22.875C58.9375 22.75 59.375 23.9375 59.0625 24.0625H58.9375L30.25 31.5625H30.125Z" fill="#2C6E4A"/>
<path d="M30.125 25.5624H30L1.12495 18.1249C0.812454 18.0624 0.999954 16.8124 1.31245 16.8749H1.43745L30.125 24.2499L58.625 16.8749C58.9375 16.7499 59.375 17.9374 59.0625 18.0624H58.9375L30.25 25.5624H30.125Z" fill="#2C6E4A"/>
</svg>
